<svg width="20" height="18" viewBox="0 0 20 18" fill="none" xmlns="http://www.w3.org/2000/svg">
<path d="M18.5196 0.00167666C18.2611 0.0137225 18.0177 0.0890085 17.8013 0.173329H17.7983C17.5789 0.260661 16.536 0.700333 14.9521 1.36586C13.3682 2.03441 11.3124 2.9017 9.27173 3.76298C5.1963 5.48251 1.18999 7.17495 1.18999 7.17495L1.23808 7.15688C1.23808 7.15688 0.961578 7.24722 0.673052 7.44598C0.525784 7.54235 0.363487 7.67485 0.22223 7.88264C0.0809728 8.09043 -0.0332358 8.40964 0.00884133 8.73789C0.0779675 9.29501 0.438625 9.62928 0.697096 9.81298C0.958573 9.99969 1.20803 10.087 1.20803 10.087H1.21404L4.97089 11.3548C5.13919 11.8969 6.11597 15.1131 6.3504 15.8539C6.48865 16.2966 6.6239 16.5737 6.79221 16.7845C6.87335 16.8929 6.96953 16.9832 7.08374 17.0555C7.12882 17.0826 7.17691 17.1037 7.225 17.1218C7.24002 17.1308 7.25505 17.1338 7.27308 17.1368L7.23401 17.1278C7.24603 17.1308 7.25505 17.1398 7.26407 17.1428C7.29412 17.1519 7.31516 17.1549 7.35423 17.1609C7.94932 17.3416 8.42719 16.9712 8.42719 16.9712L8.45424 16.9501L10.6723 14.9264L14.3901 17.7843L14.4742 17.8204C15.2496 18.1607 16.0341 17.971 16.4488 17.6367C16.8666 17.2994 17.0289 16.8688 17.0289 16.8688L17.0559 16.7995L19.9292 2.05247C20.0103 1.68809 20.0313 1.34779 19.9412 1.01654C19.851 0.685276 19.6196 0.375096 19.3401 0.209467C19.0576 0.0408253 18.7781 -0.0103691 18.5196 0.00167666ZM18.4414 1.58269C18.4384 1.63087 18.4475 1.62485 18.4264 1.7182V1.72724L15.5802 16.3207C15.5682 16.3418 15.5472 16.387 15.4901 16.4321C15.43 16.4803 15.3819 16.5104 15.1324 16.4111L10.5851 12.9178L7.83811 15.4263L8.41516 11.7343C8.41516 11.7343 15.5382 5.08199 15.8447 4.7959C16.1513 4.50982 16.0491 4.44959 16.0491 4.44959C16.0701 4.10026 15.5862 4.3472 15.5862 4.3472L6.21816 10.1623L6.21515 10.1473L1.72497 8.63249V8.62948C1.72196 8.62948 1.71595 8.62647 1.71295 8.62647C1.71595 8.62647 1.73699 8.61743 1.73699 8.61743L1.76104 8.60539L1.78508 8.59635C1.78508 8.59635 5.79439 6.90392 9.86982 5.18438C11.9105 4.32311 13.9663 3.45581 15.5472 2.78727C17.128 2.12174 18.2972 1.63388 18.3633 1.60678C18.4264 1.58269 18.3964 1.58269 18.4414 1.58269Z" fill="#A6A6A6"/>
</svg>
